<svg width="24" height="20" viewBox="0 0 24 20" fill="none" xmlns="http://www.w3.org/2000/svg">
<path fill-rule="evenodd" clip-rule="evenodd" d="M0.319533 17.774C-0.106511 18.2001 -0.106511 18.8908 0.319533 19.3169C0.745554 19.7428 1.43627 19.7428 1.8623 19.3169L10.5896 10.5896C11.0156 10.1635 11.0156 9.47283 10.5896 9.0468L1.8623 0.319533C1.43627 -0.106511 0.745554 -0.106511 0.319533 0.319533C-0.106511 0.745554 -0.106511 1.43627 0.319533 1.8623L8.2754 9.81818L0.319533 17.774ZM13.4104 17.774C12.9844 18.2001 12.9844 18.8908 13.4104 19.3169C13.8365 19.7428 14.5272 19.7428 14.9532 19.3169L23.6806 10.5896C24.1065 10.1635 24.1065 9.47283 23.6806 9.0468L14.9532 0.319533C14.5272 -0.106511 13.8365 -0.106511 13.4104 0.319533C12.9844 0.745554 12.9844 1.43627 13.4104 1.8623L21.3663 9.81818L13.4104 17.774Z" fill="#003851"/>
</svg>
