<svg width="24" height="20" viewBox="0 0 24 20" fill="none" xmlns="http://www.w3.org/2000/svg">
<path d="M21.6 0H2.4C1.76348 0 1.15303 0.252856 0.702944 0.702944C0.252856 1.15303 0 1.76348 0 2.4V16.8C0 17.4365 0.252856 18.047 0.702944 18.4971C1.15303 18.9471 1.76348 19.2 2.4 19.2H21.6C22.2365 19.2 22.847 18.9471 23.2971 18.4971C23.7471 18.047 24 17.4365 24 16.8V2.4C24 1.76348 23.7471 1.15303 23.2971 0.702944C22.847 0.252856 22.2365 0 21.6 0ZM8.4 14.4C8.4 14.7183 8.27357 15.0235 8.04853 15.2485C7.82348 15.4736 7.51826 15.6 7.2 15.6C6.88174 15.6 6.57652 15.4736 6.35147 15.2485C6.12643 15.0235 6 14.7183 6 14.4V9.6C6 9.28174 6.12643 8.97652 6.35147 8.75147C6.57652 8.52643 6.88174 8.4 7.2 8.4C7.51826 8.4 7.82348 8.52643 8.04853 8.75147C8.27357 8.97652 8.4 9.28174 8.4 9.6V14.4ZM13.2 14.4C13.2 14.7183 13.0736 15.0235 12.8485 15.2485C12.6235 15.4736 12.3183 15.6 12 15.6C11.6817 15.6 11.3765 15.4736 11.1515 15.2485C10.9264 15.0235 10.8 14.7183 10.8 14.4V7.2C10.8 6.88174 10.9264 6.57652 11.1515 6.35147C11.3765 6.12643 11.6817 6 12 6C12.3183 6 12.6235 6.12643 12.8485 6.35147C13.0736 6.57652 13.2 6.88174 13.2 7.2V14.4ZM18 14.4C18 14.7183 17.8736 15.0235 17.6485 15.2485C17.4235 15.4736 17.1183 15.6 16.8 15.6C16.4817 15.6 16.1765 15.4736 15.9515 15.2485C15.7264 15.0235 15.6 14.7183 15.6 14.4V4.8C15.6 4.48174 15.7264 4.17652 15.9515 3.95147C16.1765 3.72643 16.4817 3.6 16.8 3.6C17.1183 3.6 17.4235 3.72643 17.6485 3.95147C17.8736 4.17652 18 4.48174 18 4.8V14.4Z" fill="white"/>
</svg>
