<svg width="24" height="22" viewBox="0 0 24 22" fill="none" xmlns="http://www.w3.org/2000/svg">
<path d="M9.80969 10.0097C12.5186 10.0097 14.7145 7.81372 14.7145 5.10485C14.7145 2.39598 12.5186 0.200012 9.80969 0.200012C7.10082 0.200012 4.90485 2.39598 4.90485 5.10485C4.90485 7.81372 7.10082 10.0097 9.80969 10.0097Z" fill="white"/>
<path d="M10.2389 12.4744C6.8913 12.3518 0 14.0194 0 17.367V18.5932C0 19.2676 0.551795 19.8194 1.22621 19.8194H11.698C8.66931 16.435 10.1898 12.597 10.2389 12.4744Z" fill="white"/>
<path d="M21.3728 17.3915C21.9492 16.4105 22.2312 15.2211 21.9614 13.9336C21.5445 11.9226 19.8523 10.3163 17.8168 10.0588C14.5919 9.64184 11.8697 12.3518 12.2989 15.5767C12.5687 17.6122 14.1627 19.3044 16.1737 19.7213C17.4612 19.9911 18.6507 19.709 19.6316 19.1327L21.9124 21.4135C22.3906 21.8917 23.1631 21.8917 23.6413 21.4135C24.1196 20.9352 24.1196 20.1627 23.6413 19.6845L21.3728 17.3915ZM17.1669 17.367C15.8181 17.367 14.7145 16.2634 14.7145 14.9145C14.7145 13.5657 15.8181 12.4621 17.1669 12.4621C18.5158 12.4621 19.6194 13.5657 19.6194 14.9145C19.6194 16.2634 18.5158 17.367 17.1669 17.367Z" fill="white"/>
</svg>
