<svg width="24" height="25" viewBox="0 0 24 25" fill="none" xmlns="http://www.w3.org/2000/svg">
<path d="M16.2181 0.772095C14.3212 0.772095 12.7327 2.09259 12.3216 3.86451H1.09091C0.48842 3.86451 6.67574e-06 4.35292 6.67574e-06 4.95542C6.67574e-06 5.55791 0.48842 6.04632 1.09091 6.04632H12.4255C12.9575 7.63071 14.4545 8.7721 16.2181 8.7721C17.9819 8.7721 19.4788 7.63071 20.0109 6.04632H22.9091C23.5116 6.04632 24 5.55791 24 4.95542C24 4.35292 23.5116 3.86451 22.9091 3.86451H20.1148C19.7037 2.09259 18.1152 0.772095 16.2181 0.772095Z" fill="white"/>
<path d="M6.03636 8.7721C4.19654 8.7721 2.64682 10.0142 2.1801 11.7057L1.06233 11.7349C0.460036 11.7508 -0.0154046 12.2518 0.00038203 12.8541C0.0161687 13.4564 0.517209 13.9318 1.1195 13.916L2.19405 13.8878C2.67704 15.5541 4.21445 16.7721 6.03636 16.7721C7.84782 16.7721 9.378 15.568 9.87027 13.9165H22.9091C23.5116 13.9165 24 13.4281 24 12.8256C24 12.223 23.5116 11.7346 22.9091 11.7346H9.90053C9.4436 10.0285 7.88669 8.7721 6.03636 8.7721Z" fill="white"/>
<path d="M16.2181 16.7721C14.4152 16.7721 12.8908 17.965 12.3912 19.6046H1.09091C0.488414 19.6046 0 20.093 0 20.6956C0 21.298 0.488414 21.7865 1.09091 21.7865H12.3479C12.7969 23.5044 14.3595 24.7721 16.2181 24.7721C18.0768 24.7721 19.6395 23.5044 20.0884 21.7865H22.9091C23.5116 21.7865 24 21.298 24 20.6956C24 20.093 23.5116 19.6046 22.9091 19.6046H20.0451C19.5456 17.965 18.0212 16.7721 16.2181 16.7721Z" fill="white"/>
</svg>
