<svg width="30" height="30" viewBox="0 0 30 30" fill="none" xmlns="http://www.w3.org/2000/svg">
<path d="M21.9848 19.3467H20.5954L20.103 18.8719C22.2134 16.4097 23.3038 13.0506 22.7058 9.48045C21.8792 4.59129 17.7991 0.68699 12.8747 0.0890349C5.43546 -0.825485 -0.825485 5.43546 0.0890348 12.8747C0.68699 17.7991 4.59129 21.8792 9.48045 22.7058C13.0506 23.3038 16.4097 22.2134 18.8719 20.103L19.3467 20.5954V21.9848L26.8212 29.4592C27.5422 30.1803 28.7205 30.1803 29.4416 29.4592C30.1627 28.7381 30.1627 27.5598 29.4416 26.8388L21.9848 19.3467ZM11.4326 19.3467C7.05346 19.3467 3.51849 15.8117 3.51849 11.4326C3.51849 7.05346 7.05346 3.51849 11.4326 3.51849C15.8117 3.51849 19.3467 7.05346 19.3467 11.4326C19.3467 15.8117 15.8117 19.3467 11.4326 19.3467Z" fill="#3A95E9"/>
</svg>
